<svg xmlns="http://www.w3.org/2000/svg" width="48" height="45" viewBox="0 0 48 45" fill="none"><circle cx="35" cy="32" r="13" fill="url(#paint0_linear_160_2)" fill-opacity="0.1"></circle><path fill-rule="evenodd" clip-rule="evenodd" d="M8.5 3.4C5.68335 3.4 3.4 5.68335 3.4 8.5V25.5C3.4 28.3167 5.68335 30.6 8.5 30.6H25.5C28.3167 30.6 30.6 28.3167 30.6 25.5V15.3C30.6 14.3611 31.3611 13.6 32.3 13.6C33.2389 13.6 34 14.3611 34 15.3V25.5C34 30.1944 30.1944 34 25.5 34H8.5C3.80559 34 0 30.1944 0 25.5V8.5C0 3.80559 3.80559 0 8.5 0H18.7C19.6389 0 20.4 0.761124 20.4 1.7C20.4 2.63888 19.6389 3.4 18.7 3.4H8.5Z" fill="url(#paint1_linear_160_2)"></path><path fill-rule="evenodd" clip-rule="evenodd" d="M29.2354 3.4C28.8736 3.4 28.5265 3.54377 28.2706 3.79965L14.8795 17.1906L14.2364 19.7635L16.8094 19.1204L30.2003 5.72936C30.4561 5.47347 30.6 5.1264 30.6 4.7645C30.6 4.40262 30.4561 4.05555 30.2003 3.79965C29.9444 3.54377 29.5973 3.4 29.2354 3.4ZM25.8665 1.3955C26.76 0.501976 27.9718 0 29.2354 0C30.4991 0 31.7109 0.501976 32.6044 1.3955C33.4979 2.28902 34 3.50088 34 4.7645C34 6.02813 33.4979 7.24001 32.6044 8.13353L18.8805 21.8574C18.6627 22.0753 18.3897 22.2299 18.0908 22.3047L12.3123 23.7492C11.733 23.894 11.1201 23.7243 10.6979 23.3021C10.2756 22.8798 10.1059 22.2669 10.2507 21.6877L11.6953 15.9091C11.7701 15.6102 11.9246 15.3372 12.1425 15.1195L25.8665 1.3955Z" fill="url(#paint2_linear_160_2)"></path><path fill-rule="evenodd" clip-rule="evenodd" d="M22.598 5.59764C23.2618 4.93376 24.3382 4.93376 25.0021 5.59764L28.4021 8.99764C29.0659 9.66154 29.0659 10.7379 28.4021 11.4018C27.7382 12.0657 26.6618 12.0657 25.998 11.4018L22.598 8.00182C21.9341 7.33792 21.9341 6.26155 22.598 5.59764Z" fill="url(#paint3_linear_160_2)"></path><defs><linearGradient id="paint0_linear_160_2" x1="48.7842" y1="19" x2="16.6865" y2="27.5562" gradientUnits="userSpaceOnUse"><stop stop-color="#F97956"></stop><stop offset="1" stop-color="#FF4579"></stop></linearGradient><linearGradient id="paint1_linear_160_2" x1="35.0255" y1="-8.89884e-07" x2="-6.94845" y2="11.1889" gradientUnits="userSpaceOnUse"><stop stop-color="#F97956"></stop><stop offset="1" stop-color="#FF4579"></stop></linearGradient><linearGradient id="paint2_linear_160_2" x1="34.7178" y1="-6.22918e-07" x2="5.33601" y2="7.83225" gradientUnits="userSpaceOnUse"><stop stop-color="#F97956"></stop><stop offset="1" stop-color="#FF4579"></stop></linearGradient><linearGradient id="paint3_linear_160_2" x1="29.1051" y1="5.09973" x2="20.7104" y2="7.33746" gradientUnits="userSpaceOnUse"><stop stop-color="#F97956"></stop><stop offset="1" stop-color="#FF4579"></stop></linearGradient></defs></svg>