<svg xmlns="http://www.w3.org/2000/svg" width="48" height="44" viewBox="0 0 48 44" fill="none"><circle cx="35" cy="31" r="13" fill="url(#paint0_linear_160_4)" fill-opacity="0.1"></circle><path d="M34.875 20.4998C34.254 20.4998 33.75 21.0038 33.75 21.6248V29.4998H2.25V15.9998H14.625C15.246 15.9998 15.75 15.4958 15.75 14.8748C15.75 14.2538 15.246 13.7498 14.625 13.7498H2.25V9.24976H14.625C15.246 9.24976 15.75 8.74576 15.75 8.12476C15.75 7.50376 15.246 6.99976 14.625 6.99976H2.25C1.008 6.99976 0 8.00776 0 9.24976V29.4998C0 30.7418 1.008 31.7498 2.25 31.7498H33.75C34.992 31.7498 36 30.7418 36 29.4998V21.6248C36 21.0038 35.496 20.4998 34.875 20.4998Z" fill="url(#paint1_linear_160_4)"></path><path d="M10.125 20.4998H5.625C5.004 20.4998 4.5 21.0038 4.5 21.6248C4.5 22.2458 5.004 22.7498 5.625 22.7498H10.125C10.746 22.7498 11.25 22.2458 11.25 21.6248C11.25 21.0038 10.746 20.4998 10.125 20.4998Z" fill="url(#paint2_linear_160_4)"></path><path d="M35.3182 3.71468L27.4432 0.339682C27.1575 0.220432 26.8403 0.220432 26.5545 0.339682L18.6795 3.71468C18.2678 3.89243 18 4.29968 18 4.74968V9.24968C18 15.4394 20.2883 19.0574 26.4398 22.6012C26.613 22.7002 26.8065 22.7497 27 22.7497C27.1935 22.7497 27.387 22.7002 27.5602 22.6012C33.7117 19.0664 36 15.4484 36 9.24968V4.74968C36 4.29968 35.7322 3.89243 35.3182 3.71468ZM33.75 9.24968C33.75 14.4449 32.031 17.3047 27 20.3197C21.969 17.2979 20.25 14.4382 20.25 9.24968V5.49218L27 2.59868L33.75 5.49218V9.24968Z" fill="url(#paint3_linear_160_4)"></path><path d="M31.0793 7.24505C30.5955 6.86255 29.889 6.9368 29.4975 7.42055L25.9605 11.844L24.561 9.75155C24.2123 9.23405 23.5125 9.0968 23.0018 9.4388C22.4865 9.78305 22.3448 10.4828 22.689 10.998L24.939 14.373C25.1393 14.6723 25.4678 14.8568 25.8278 14.8748C25.8435 14.8748 25.8615 14.8748 25.875 14.8748C26.2148 14.8748 26.5388 14.7218 26.7548 14.4518L31.2548 8.8268C31.6418 8.3408 31.5653 7.6343 31.0793 7.24505Z" fill="url(#paint4_linear_160_4)"></path><defs><linearGradient id="paint0_linear_160_4" x1="48.7842" y1="18" x2="16.6865" y2="26.5562" gradientUnits="userSpaceOnUse"><stop stop-color="#F97956"></stop><stop offset="1" stop-color="#FF4579"></stop></linearGradient><linearGradient id="paint1_linear_160_4" x1="37.0858" y1="6.99976" x2="-4.29423" y2="23.0442" gradientUnits="userSpaceOnUse"><stop stop-color="#F97956"></stop><stop offset="1" stop-color="#FF4579"></stop></linearGradient><linearGradient id="paint2_linear_160_4" x1="11.4536" y1="20.4998" x2="6.00982" y2="24.8532" gradientUnits="userSpaceOnUse"><stop stop-color="#F97956"></stop><stop offset="1" stop-color="#FF4579"></stop></linearGradient><linearGradient id="paint3_linear_160_4" x1="36.5429" y1="0.250244" x2="13.7777" y2="5.10513" gradientUnits="userSpaceOnUse"><stop stop-color="#F97956"></stop><stop offset="1" stop-color="#FF4579"></stop></linearGradient><linearGradient id="paint4_linear_160_4" x1="31.7727" y1="7.00122" x2="20.883" y2="10.3195" gradientUnits="userSpaceOnUse"><stop stop-color="#F97956"></stop><stop offset="1" stop-color="#FF4579"></stop></linearGradient></defs></svg>