<svg xmlns="http://www.w3.org/2000/svg" width="48" height="43" viewBox="0 0 48 43" fill="none"><circle cx="35" cy="30" r="13" fill="url(#paint0_linear_83_428)" fill-opacity="0.1"></circle><path d="M37.7822 9.94477L28.2367 0.399245C27.7041 -0.133215 26.8407 -0.133055 26.3082 0.399565C26.0526 0.655248 25.909 1.00186 25.9089 1.36341V5.45434H16.3634C15.6103 5.45434 14.9997 6.06486 14.9997 6.81801C14.9997 7.57115 15.6103 8.18167 16.3634 8.18167H27.2726C28.0257 8.18167 28.6363 7.57115 28.6363 6.81801V4.65517L34.89 10.9089L28.6363 17.1625V14.9998C28.6363 14.2466 28.0257 13.6361 27.2726 13.6361H12.2725V9.54518C12.2723 8.79204 11.6616 8.18167 10.9086 8.18184C10.5471 8.18191 10.2004 8.3255 9.94473 8.5811L0.399285 18.1266C-0.133095 18.6592 -0.133095 19.5223 0.399285 20.0548L9.94481 29.6003C10.2005 29.8561 10.5473 29.9998 10.9089 29.9999C11.0881 30.0005 11.2657 29.9652 11.4311 29.8963C11.9406 29.685 12.2726 29.1878 12.2725 28.6362V24.5453H21.818C22.5711 24.5453 23.1817 23.9348 23.1817 23.1816C23.1817 22.4285 22.5711 21.818 21.818 21.818H10.9089C10.1557 21.818 9.54522 22.4285 9.54522 23.1816V25.3444L3.29154 19.0907L9.54522 12.837V14.9998C9.54522 15.7529 10.1557 16.3634 10.9089 16.3634H25.9089V20.4544C25.9091 21.2075 26.5198 21.8179 27.2728 21.8177C27.6343 21.8176 27.981 21.6741 28.2367 21.4185L37.7822 11.8729C38.3145 11.3404 38.3145 10.4772 37.7822 9.94477Z" fill="url(#paint1_linear_83_428)"></path><defs><linearGradient id="paint0_linear_83_428" x1="48.7842" y1="17" x2="16.6865" y2="25.5562" gradientUnits="userSpaceOnUse"><stop stop-color="#F97956"></stop><stop offset="1" stop-color="#FF4579"></stop></linearGradient><linearGradient id="paint1_linear_83_428" x1="39.3331" y1="-7.85189e-07" x2="-5.94127" y2="15.36" gradientUnits="userSpaceOnUse"><stop stop-color="#F97956"></stop><stop offset="1" stop-color="#FF4579"></stop></linearGradient></defs></svg>