<svg xmlns="http://www.w3.org/2000/svg" width="47" height="45" viewBox="0 0 47 45" fill="none"><circle cx="34" cy="32" r="13" fill="url(#paint0_linear_160_5)" fill-opacity="0.1"></circle><path d="M17.813 22.4233L10.5153 32.5812C10.5014 32.6006 10.4869 32.6197 10.472 32.6383C9.83501 33.4309 8.65238 33.9999 7.63265 33.9999C6.7013 33.9999 5.79599 33.6407 5.11778 32.9951L0.412905 28.521C-0.11861 28.0155 -0.139794 27.1749 0.36569 26.6434C0.871173 26.1119 1.71181 26.0908 2.24332 26.5962L6.94866 31.0707C7.15187 31.2641 7.41729 31.36 7.69646 31.3415C7.9662 31.3235 8.20899 31.2012 8.38323 30.9963L15.6558 20.8735C16.0838 20.2778 16.9136 20.1418 17.5093 20.5698C18.105 20.9978 18.241 21.8277 17.813 22.4233ZM33.0329 22.8703C33.6565 22.166 34 21.2604 34 20.3203C34 19.1233 33.4403 18.0339 32.5403 17.3334C32.8823 16.7573 33.0703 16.0934 33.0703 15.4063C33.0703 13.3191 31.3723 11.6211 29.2852 11.6211H20.5478C19.885 11.6211 18.9544 11.1974 18.8587 10.5014C19.006 9.91335 21.3156 5.27906 21.3156 5.27906C21.4721 4.82319 21.544 4.34573 21.5291 3.8601C21.4975 2.8318 21.0719 1.86592 20.3304 1.14037C19.5894 0.41521 18.6149 0.0102655 17.5863 0.00017175C16.4948 -0.00978918 15.4673 0.413816 14.7013 1.19522C14.5645 1.34569 14.0635 2.01952 13.7904 2.44418L7.3042 12.5443C7.14137 12.7978 6.86426 12.9492 6.56284 12.9492H1.32818C0.594658 12.9492 5.76293e-05 13.5438 5.76293e-05 14.2774C5.76293e-05 15.0108 0.594658 15.6055 1.32818 15.6055H6.56284C7.77276 15.6055 8.88546 14.9977 9.53923 13.9797L16.6605 2.99502C16.9079 2.7727 17.2236 2.6533 17.5602 2.65635C18.2631 2.66326 18.8526 3.2398 18.8741 3.94158C18.8784 4.08149 18.8616 4.21856 18.8241 4.34997C18.6327 4.73852 16.196 9.66918 16.196 10.4676L16.197 10.5184C16.2857 12.8401 18.5244 14.2774 20.5478 14.2774H29.2852C29.9077 14.2774 30.4141 14.7838 30.4141 15.4063C30.4141 15.7743 30.2303 16.1215 29.9227 16.335C29.286 16.7768 29.1524 17.3016 29.1524 17.6641C29.1524 18.3962 29.689 19.0235 30.4876 19.225C30.9837 19.3503 31.3438 19.8109 31.3438 20.3203C31.3438 20.8981 30.9156 21.4094 30.4088 21.4368C29.1549 21.5045 28.8203 22.3708 28.8203 22.872C28.8203 23.4534 29.1179 23.9089 29.7047 24.2259C29.7237 24.2362 29.7446 24.2473 29.7671 24.2603C30.1225 24.465 30.3432 24.8382 30.3432 25.2344C30.3432 25.8569 29.8242 26.3633 29.1863 26.3633H28.8867C27.9558 26.3633 27.2266 27.0249 27.2266 27.8695C27.2266 28.1849 27.3378 28.7754 28.0828 29.1863C28.2247 29.2646 28.6875 29.5625 28.6875 30.1105C28.6875 30.4813 28.5761 31.3438 27.5444 31.3438H15.3399C14.6064 31.3438 14.0118 31.9384 14.0118 32.6719C14.0118 33.4053 14.6064 34 15.3399 34H27.5444C29.7459 34 31.3438 32.3642 31.3438 30.1105C31.3438 29.5716 31.2196 29.0468 30.9908 28.5682C32.1858 27.9284 32.9995 26.674 32.9995 25.2344C32.9995 24.5709 32.8213 23.9289 32.4992 23.3674C32.69 23.2217 32.8688 23.0555 33.0329 22.8703Z" fill="url(#paint1_linear_160_5)"></path><defs><linearGradient id="paint0_linear_160_5" x1="47.7842" y1="19" x2="15.6865" y2="27.5562" gradientUnits="userSpaceOnUse"><stop stop-color="#F97956"></stop><stop offset="1" stop-color="#FF4579"></stop></linearGradient><linearGradient id="paint1_linear_160_5" x1="35.0255" y1="-8.89884e-07" x2="-6.94845" y2="11.1889" gradientUnits="userSpaceOnUse"><stop stop-color="#F97956"></stop><stop offset="1" stop-color="#FF4579"></stop></linearGradient></defs></svg>